<?xml version="1.0" encoding="utf-8"?>
<!-- Generator: Adobe Illustrator 23.0.1, SVG Export Plug-In . SVG Version: 6.00 Build 0)  -->
<svg version="1.1" xmlns="http://www.w3.org/2000/svg" xmlns:xlink="http://www.w3.org/1999/xlink" x="0px" y="0px"
	 viewBox="0 0 1920 1080" style="enable-background:new 0 0 1920 1080;" xml:space="preserve">
<style type="text/css">
	.st0{display:none;}
	.st1{display:inline;}
	.st2{fill:#D3D3D3;}
	.st3{fill:#FFFFFF;}
	.st4{fill:#B7B7B7;}
</style>
<g id="Layer_1" class="st0">
	<g class="st1">
		<rect x="-16.5" y="-7.5" class="st2" width="1955" height="1112"/>
		<path d="M1938-7v1111H-16V-7H1938 M1939-8H-17v1113h1956V-8L1939-8z"/>
	</g>
</g>
<g id="Layer_2">
	<path class="st3" d="M1920,848.12"/>
	<path class="st4" d="M0,247"/>
	<path class="st4" d="M1753,247"/>
	<g>
		<path class="st3" d="M1918.87,468.97c-47.73,69.54-93.75,134.14-185.13,134.14c-93.13,0-139.14-67.1-187.87-138.13
			c-48.65-70.93-98.95-144.27-199.51-144.27c-100.56,0-150.87,73.34-199.51,144.27c-48.72,71.04-94.74,138.13-187.86,138.13
			c-93.12,0-139.14-67.1-187.86-138.13c-48.64-70.93-98.95-144.27-199.51-144.27c-100.56,0-150.87,73.34-199.51,144.27
			c-48.72,71.04-94.74,138.13-187.86,138.13c-91.38,0-137.4-64.6-185.12-134.14L0,1085.83c0.91,1.33,1919.09,8.33,1920,7
			L1918.87,468.97z"/>
	</g>
</g>
</svg>
